<?xml version="1.0" standalone="no"?>
<!DOCTYPE svg PUBLIC "-//W3C//DTD SVG 20010904//EN"
 "http://www.w3.org/TR/2001/REC-SVG-20010904/DTD/svg10.dtd">
<svg version="1.0" xmlns="http://www.w3.org/2000/svg"
 width="1280.000000pt" height="904.000000pt" viewBox="0 0 1280.000000 904.000000"
 preserveAspectRatio="xMidYMid meet">
<g transform="translate(0.000000,904.000000) scale(0.100000,-0.100000)"
fill="#000000" stroke="none">
<path d="M6955 7044 c-129 -10 -168 -18 -280 -54 -153 -49 -224 -87 -321 -169
-122 -102 -296 -335 -408 -544 -69 -129 -113 -235 -157 -382 -32 -105 -33
-117 -34 -275 0 -180 21 -315 71 -446 13 -36 24 -76 24 -89 0 -14 -18 -54 -39
-89 -22 -35 -66 -113 -97 -172 -32 -60 -102 -179 -155 -264 -156 -251 -166
-283 -95 -317 32 -15 36 -15 83 8 49 24 334 233 434 320 86 73 100 78 150 45
27 -18 48 -43 61 -74 19 -42 20 -59 14 -181 -3 -75 -9 -170 -12 -212 -7 -83
16 -226 42 -267 22 -33 93 -82 121 -82 13 0 47 12 75 26 30 15 59 23 72 20 28
-7 166 -148 166 -170 0 -23 36 -38 74 -31 58 11 52 -12 -27 -94 -84 -88 -130
-171 -152 -279 -29 -133 -16 -230 70 -554 24 -91 53 -214 65 -274 19 -99 19
-109 4 -132 -21 -31 -51 -27 -171 24 -143 60 -128 68 -249 -141 -57 -99 -104
-186 -104 -193 0 -18 221 -160 305 -196 55 -23 85 -30 140 -30 89 0 143 25
220 102 68 69 100 133 120 236 38 198 9 351 -130 682 -141 335 -139 329 -140
444 0 103 1 106 38 172 20 37 49 81 63 98 l27 31 21 -20 c11 -11 35 -23 51
-27 60 -14 114 -92 115 -165 0 -56 45 -110 118 -142 80 -36 149 -38 241 -7 65
23 75 23 141 12 149 -25 255 -12 332 44 26 18 52 34 57 34 5 0 12 -54 16 -120
l7 -121 -50 -102 c-64 -130 -197 -424 -207 -457 -4 -14 -22 -61 -41 -106 -18
-44 -41 -122 -50 -173 -16 -88 -16 -104 1 -290 25 -277 24 -337 -8 -387 -36
-55 -118 -332 -124 -419 -4 -50 0 -96 12 -150 9 -43 17 -124 18 -184 1 -106 1
-106 -41 -191 -54 -108 -118 -195 -159 -215 -36 -18 -84 -18 -133 -2 -66 22
-454 230 -565 303 -110 72 -149 88 -237 99 -39 5 -70 24 -213 130 -92 68 -180
127 -196 130 -33 7 -35 14 -38 120 -2 84 -31 179 -116 390 -66 166 -76 178
-248 325 -251 214 -248 212 -406 229 l-94 10 -67 66 c-39 37 -77 65 -89 65
-20 0 -67 56 -120 143 -12 20 -27 37 -32 37 -18 0 -110 94 -136 137 l-25 43
21 26 c26 33 26 52 2 106 -10 24 -29 70 -41 103 -71 189 -297 532 -484 735
-86 93 -194 187 -243 211 -52 25 -56 23 -175 -78 -54 -45 -90 -84 -94 -100
-25 -99 100 -366 291 -621 93 -125 290 -331 370 -388 30 -21 71 -51 91 -66 39
-30 82 -36 114 -16 15 10 23 9 40 -7 31 -28 77 -114 91 -170 7 -28 32 -78 57
-113 53 -74 50 -92 -12 -92 -99 0 -168 -119 -121 -209 18 -37 65 -76 126 -107
27 -13 49 -26 49 -29 0 -3 -16 -11 -35 -19 -101 -43 -100 -197 2 -261 39 -24
41 -39 10 -60 -49 -32 -62 -113 -26 -159 l22 -27 -31 -27 c-38 -34 -45 -64
-25 -113 14 -36 14 -40 -6 -68 -40 -56 -19 -131 53 -186 20 -15 37 -39 41 -56
9 -40 49 -85 82 -94 15 -3 49 -26 74 -50 60 -56 146 -111 222 -142 97 -39 167
-89 167 -117 0 -44 96 -147 274 -293 l76 -63 3613 0 3614 0 6 407 c4 223 7
976 7 1673 l0 1267 -105 238 c-58 132 -126 277 -152 324 -104 194 -248 368
-427 519 -142 119 -329 286 -461 411 -142 134 -385 320 -505 384 -191 104
-487 213 -642 237 -122 20 -376 8 -458 -21 -79 -27 -184 -89 -253 -148 -81
-69 -126 -85 -216 -78 -42 4 -103 13 -136 22 -56 15 -226 94 -358 166 l-57 32
-23 -21 c-28 -27 -49 -28 -88 -5 -49 29 -33 46 56 59 228 34 346 82 458 187
l67 62 0 65 c0 129 -42 148 -385 170 -276 18 -436 51 -478 98 -8 9 -25 44 -36
76 -51 146 -156 284 -354 463 -163 148 -366 287 -494 338 -88 36 -152 51 -318
73 -201 28 -283 31 -460 16z"/>
</g>
</svg>
